<?xml version="1.0" standalone="no"?>
<!DOCTYPE svg PUBLIC "-//W3C//DTD SVG 20010904//EN"
 "http://www.w3.org/TR/2001/REC-SVG-20010904/DTD/svg10.dtd">
<svg version="1.0" xmlns="http://www.w3.org/2000/svg"
 width="512.000000pt" height="512.000000pt" viewBox="0 0 512.000000 512.000000"
 preserveAspectRatio="xMidYMid meet">

<g transform="translate(0.000000,512.000000) scale(0.100000,-0.100000)"
fill="#000000" stroke="none">
<path d="M2875 5077 c-10 -72 -86 -708 -95 -792 -9 -78 -12 -1250 -4 -1230 2
6 24 249 48 540 27 312 54 575 66 640 22 114 66 263 176 596 35 107 64 200 64
205 0 12 -99 48 -187 68 l-62 14 -6 -41z"/>
<path d="M2250 4674 c0 -2 41 -105 90 -229 121 -303 121 -285 -2 -569 -111
-256 -111 -255 -44 -490 24 -87 47 -161 50 -164 3 -3 6 86 6 197 l0 202 89
178 c118 235 122 258 119 555 l-3 228 -91 23 c-50 13 -119 34 -153 48 -33 14
-61 23 -61 21z"/>
<path d="M3308 4350 c-5 -271 -6 -278 -82 -428 -49 -97 -92 -227 -111 -336
-15 -90 -33 -376 -23 -376 3 0 52 116 109 258 94 235 107 262 152 310 28 28
53 52 58 52 4 0 30 -66 57 -147 l50 -148 1 465 c0 399 -2 461 -13 434 -24 -54
-68 -59 -113 -11 -37 39 -53 68 -68 127 -11 39 -13 14 -17 -200z"/>
<path d="M4045 4458 c-3 -7 -34 -96 -71 -198 -37 -102 -77 -222 -90 -267 -30
-110 -48 -261 -40 -348 10 -98 96 -719 102 -724 2 -2 4 143 4 323 0 290 2 339
20 427 27 132 68 240 138 369 103 187 126 259 97 304 -17 26 -134 126 -148
126 -4 0 -10 -6 -12 -12z"/>
<path d="M1736 4183 c-21 -104 -58 -267 -83 -363 -72 -277 -70 -376 10 -598
l42 -117 6 200 c6 216 20 287 76 384 l26 45 47 -51 c58 -63 65 -87 120 -417
22 -132 43 -242 45 -245 8 -7 4 456 -4 550 -6 72 -15 101 -54 185 l-47 100 0
257 0 257 -74 0 -73 0 -37 -187z"/>
<path d="M1341 4089 c-95 -113 -142 -222 -160 -367 -11 -84 -2 -175 62 -667
l33 -250 7 145 c27 532 89 890 183 1059 l24 44 -42 47 c-24 27 -46 48 -50 49
-3 1 -29 -27 -57 -60z"/>
<path d="M1605 2329 c-76 -24 -142 -73 -200 -146 -52 -67 -111 -181 -120 -236
-16 -85 104 -236 241 -303 66 -33 84 -38 172 -42 119 -5 206 13 306 65 82 43
180 135 216 205 24 46 24 47 7 101 -23 72 -86 168 -153 232 -129 124 -316 174
-469 124z m176 -228 c23 -24 29 -38 29 -73 -1 -100 -106 -144 -176 -74 -70 70
-26 175 74 176 35 0 49 -6 73 -29z"/>
<path d="M3205 2329 c-76 -24 -142 -73 -200 -146 -52 -67 -111 -181 -120 -236
-16 -85 104 -236 241 -303 66 -33 84 -38 172 -42 119 -5 206 13 306 65 82 43
180 135 216 205 24 46 24 47 7 101 -23 72 -86 168 -153 232 -129 124 -316 174
-469 124z m176 -228 c23 -24 29 -38 29 -73 -1 -100 -106 -144 -176 -74 -70 70
-26 175 74 176 35 0 49 -6 73 -29z"/>
<path d="M2225 944 c-16 -2 -45 -7 -63 -10 l-33 -5 28 -52 c44 -82 137 -170
208 -196 86 -32 159 -44 250 -39 108 6 193 47 292 143 40 39 73 75 73 80 0 6
-22 11 -48 12 -26 2 -104 17 -173 34 -114 29 -140 31 -314 34 -104 2 -203 1
-220 -1z"/>
</g>
</svg>
